<svg xmlns="http://www.w3.org/2000/svg" width="1200" height="675" viewBox="0 0 1200 675" fill="none">
  <defs>
    <linearGradient id="bg2" x1="0" y1="675" x2="1200" y2="0" gradientUnits="userSpaceOnUse">
      <stop stop-color="#1a0a2e"/>
      <stop offset="0.5" stop-color="#2d1b4e"/>
      <stop offset="1" stop-color="#4c1d95"/>
    </linearGradient>
    <linearGradient id="accent2" x1="0" y1="0" x2="1" y2="0">
      <stop stop-color="#a78bfa"/>
      <stop offset="1" stop-color="#ec4899"/>
    </linearGradient>
  </defs>
  <rect width="1200" height="675" fill="url(#bg2)"/>
  <rect x="700" y="100" width="380" height="280" rx="16" fill="white" fill-opacity="0.05" stroke="white" stroke-opacity="0.1" stroke-width="2"/>
  <rect x="720" y="130" width="120" height="12" rx="4" fill="url(#accent2)" fill-opacity="0.6"/>
  <rect x="720" y="160" width="340" height="8" rx="4" fill="white" fill-opacity="0.15"/>
  <rect x="720" y="180" width="280" height="8" rx="4" fill="white" fill-opacity="0.1"/>
  <rect x="720" y="220" width="340" height="120" rx="8" fill="white" fill-opacity="0.04" stroke="white" stroke-opacity="0.08"/>
  <rect x="740" y="240" width="80" height="80" rx="6" fill="#a78bfa" fill-opacity="0.2"/>
  <rect x="840" y="240" width="200" height="12" rx="4" fill="white" fill-opacity="0.2"/>
  <rect x="840" y="264" width="160" height="8" rx="4" fill="white" fill-opacity="0.1"/>
  <text x="80" y="280" fill="white" font-family="system-ui,sans-serif" font-size="28" font-weight="600" opacity="0.7">NAVBC Learning</text>
  <text x="80" y="360" fill="white" font-family="system-ui,sans-serif" font-size="56" font-weight="700">Pages &amp;</text>
  <text x="80" y="430" fill="white" font-family="system-ui,sans-serif" font-size="56" font-weight="700">User Interface</text>
  <text x="80" y="510" fill="#c4b5fd" font-family="system-ui,sans-serif" font-size="24">Build professional BC user interfaces</text>
  <rect x="80" y="560" width="180" height="36" rx="18" fill="#a78bfa" fill-opacity="0.15" stroke="#a78bfa" stroke-width="1"/>
  <text x="170" y="583" fill="#c4b5fd" font-family="monospace" font-size="16" text-anchor="middle" font-weight="600">INTERMEDIATE</text>
</svg>
